<?xml version="1.0" standalone="no"?>
<!DOCTYPE svg PUBLIC "-//W3C//DTD SVG 20010904//EN"
 "http://www.w3.org/TR/2001/REC-SVG-20010904/DTD/svg10.dtd">
<svg version="1.0" xmlns="http://www.w3.org/2000/svg"
 width="399.000000pt" height="227.000000pt" viewBox="0 0 399.000000 227.000000"
 preserveAspectRatio="xMidYMid meet">

<g transform="translate(0.000000,227.000000) scale(0.100000,-0.100000)"
fill="#000000" stroke="none">
<path d="M1997 1863 c-12 -11 -8 -883 3 -883 7 0 10 155 10 445 0 245 -1 445
-3 445 -2 0 -7 -3 -10 -7z"/>
<path d="M2660 1838 c0 -14 -8 -32 -18 -39 -16 -13 -15 -13 2 -3 31 17 43 41
28 56 -9 9 -12 7 -12 -14z"/>
<path d="M2538 1813 c-32 -35 -88 -120 -88 -136 0 -4 5 -7 10 -7 6 0 9 4 8 8
-4 11 58 109 90 145 39 41 21 32 -20 -10z"/>
<path d="M2407 1813 c-17 -16 12 -53 41 -53 12 0 9 4 -8 13 -14 7 -24 21 -24
30 2 19 1 20 -9 10z"/>
<path d="M1555 1750 c-17 -18 -17 -21 0 -46 l17 -26 24 23 c21 20 22 25 11 43
-19 28 -31 30 -52 6z"/>
<path d="M2408 1705 c-16 -32 -16 -35 -1 -35 9 0 13 3 10 6 -4 4 3 20 14 35
14 20 16 29 7 29 -7 0 -21 -16 -30 -35z"/>
<path d="M2517 1725 c3 -9 -3 -26 -13 -38 -16 -19 -15 -19 9 2 29 27 36 51 12
51 -9 0 -12 -6 -8 -15z"/>
<path d="M2563 1713 c-20 -41 -15 -52 7 -18 21 32 25 45 13 45 -5 0 -14 -12
-20 -27z"/>
<path d="M2282 1647 c-48 -75 -50 -79 -15 -40 40 43 89 124 76 122 -4 0 -32
-37 -61 -82z"/>
<path d="M2367 1712 c-20 -22 -22 -42 -5 -42 6 0 8 3 5 7 -4 3 0 17 8 30 18
28 14 30 -8 5z"/>
<path d="M2640 1716 c0 -8 7 -17 16 -20 9 -3 12 -11 8 -18 -5 -10 -4 -10 5 -2
10 9 10 16 -1 33 -15 24 -28 27 -28 7z"/>
<path d="M1480 1659 c-9 -16 -8 -25 6 -40 18 -20 18 -20 38 0 19 20 19 21 1
41 -23 25 -31 25 -45 -1z"/>
<path d="M1636 1661 c-14 -16 -15 -23 -6 -41 l12 -22 23 22 c20 19 22 25 12
41 -15 24 -20 24 -41 0z"/>
<path d="M2358 1640 c13 -6 22 -19 23 -32 1 -18 2 -19 6 -5 6 22 -14 47 -36
46 -11 0 -9 -3 7 -9z"/>
<path d="M2138 1609 c-19 -11 -24 -44 -8 -54 6 -3 7 1 4 10 -4 9 2 25 11 35
20 22 18 24 -7 9z"/>
<path d="M1562 1588 c-16 -16 -15 -33 4 -49 14 -11 18 -10 30 5 9 13 10 24 3
37 -11 22 -20 24 -37 7z"/>
<path d="M1416 1574 c-4 -10 1 -25 11 -36 15 -17 18 -17 32 -4 13 14 13 18 -4
36 -22 24 -31 25 -39 4z"/>
<path d="M1707 1572 c-10 -11 -15 -26 -11 -36 8 -21 17 -20 39 4 17 18 17 22
4 36 -14 13 -17 13 -32 -4z"/>
<path d="M1493 1501 c-10 -16 -9 -22 7 -36 17 -16 19 -15 30 5 9 16 9 25 -1
36 -15 19 -22 18 -36 -5z"/>
<path d="M1627 1502 c-16 -17 -16 -20 -2 -32 13 -11 19 -11 33 3 15 15 15 19
1 32 -14 14 -17 14 -32 -3z"/>
<path d="M2797 1496 c4 -17 -2 -28 -18 -40 -13 -9 -19 -16 -13 -16 13 0 54 38
54 49 0 5 -6 14 -14 20 -11 9 -12 7 -9 -13z"/>
<path d="M1357 1486 c-3 -8 3 -22 14 -32 17 -16 22 -16 29 -4 14 22 12 28 -9
40 -25 13 -28 13 -34 -4z"/>
<path d="M1756 1481 c-13 -14 -14 -20 -4 -29 18 -14 53 11 45 33 -8 20 -20 19
-41 -4z"/>
<path d="M2678 1473 c-29 -32 -98 -134 -98 -145 0 -5 5 -8 10 -8 6 0 10 5 10
11 0 6 25 46 54 90 30 43 54 79 52 79 -1 0 -14 -12 -28 -27z"/>
<path d="M2543 1463 c-8 -20 30 -53 61 -52 15 1 13 3 -10 10 -32 9 -49 32 -38
50 3 5 3 9 -1 9 -3 0 -8 -7 -12 -17z"/>
<path d="M1560 1435 c-11 -13 -11 -19 3 -33 15 -15 19 -15 32 -1 14 14 14 17
-3 32 -17 16 -20 16 -32 2z"/>
<path d="M1436 1423 c-9 -22 22 -49 38 -33 7 7 7 16 0 27 -15 24 -31 27 -38 6z"/>
<path d="M1686 1421 c-14 -15 -14 -20 -3 -30 11 -8 18 -7 31 8 14 15 14 20 3
30 -11 8 -18 7 -31 -8z"/>
<path d="M2670 1388 c-31 -43 -38 -68 -18 -68 6 0 8 3 5 7 -4 3 0 17 8 30 8
13 22 34 31 48 27 41 7 28 -26 -17z"/>
<path d="M2272 1395 c4 -4 0 -22 -9 -39 l-16 -31 22 19 c24 21 27 41 9 52 -7
4 -10 4 -6 -1z"/>
<path d="M2312 1368 c-15 -41 -10 -46 13 -12 10 15 13 30 8 35 -5 5 -14 -5
-21 -23z"/>
<path d="M2362 1367 c-15 -41 -15 -47 0 -47 6 0 8 3 5 7 -4 3 0 17 9 31 9 14
12 28 7 33 -5 5 -14 -5 -21 -24z"/>
<path d="M2498 1367 c-16 -34 -15 -47 4 -47 5 0 6 4 3 10 -3 5 -1 19 5 30 6
12 10 26 8 31 -2 6 -11 -5 -20 -24z"/>
<path d="M2552 1370 c-22 -30 -28 -50 -14 -50 8 1 45 71 39 76 -2 2 -13 -10
-25 -26z"/>
<path d="M2764 1365 c-22 -47 -15 -52 13 -10 13 19 18 37 13 40 -5 3 -16 -11
-26 -30z"/>
<path d="M2818 1378 c-3 -13 -9 -31 -13 -40 -4 -10 -3 -18 2 -18 13 0 34 63
24 73 -5 5 -11 -2 -13 -15z"/>
<path d="M2137 1372 c-22 -24 -22 -52 -1 -52 13 0 14 3 6 13 -9 10 -7 19 4 35
18 27 13 29 -9 4z"/>
<path d="M2215 1370 c-11 -13 -15 -25 -10 -37 8 -17 8 -17 13 2 2 11 9 26 15
33 17 21 1 24 -18 2z"/>
<path d="M2420 1378 c1 -21 27 -50 34 -39 4 6 -2 19 -14 31 -12 12 -20 15 -20
8z"/>
<path d="M2716 1366 c-18 -29 -21 -46 -6 -46 6 0 9 3 8 8 -1 4 4 18 11 30 17
33 8 38 -13 8z"/>
<path d="M2912 1360 c-12 -16 -22 -33 -22 -39 0 -5 -21 -33 -47 -62 -40 -44
-43 -50 -16 -31 28 20 95 109 109 146 9 24 0 19 -24 -14z"/>
<path d="M1504 1366 c-4 -10 0 -24 8 -32 13 -13 16 -13 26 -1 9 11 8 18 -8 32
-18 17 -20 17 -26 1z"/>
<path d="M1627 1362 c-15 -16 -15 -21 -4 -31 19 -15 42 11 30 34 -8 14 -11 14
-26 -3z"/>
<path d="M2860 1361 c-14 -27 -13 -41 5 -41 9 0 12 6 9 15 -4 8 -1 22 6 30 8
10 9 15 2 15 -6 0 -16 -9 -22 -19z"/>
<path d="M2395 1330 c3 -5 8 -10 11 -10 2 0 4 5 4 10 0 6 -5 10 -11 10 -5 0
-7 -4 -4 -10z"/>
<path d="M1563 1294 c-8 -22 15 -44 26 -25 10 16 4 41 -10 41 -5 0 -12 -7 -16
-16z"/>
<path d="M2938 1299 c23 -7 32 -15 32 -31 0 -18 2 -20 13 -9 10 10 7 16 -12
32 -13 10 -33 19 -45 18 -15 -1 -12 -3 12 -10z"/>
<path d="M2732 1264 c-22 -15 -31 -54 -11 -54 5 0 8 4 5 9 -3 5 4 20 15 35 24
30 22 32 -9 10z"/>
<path d="M2376 1156 c3 -8 -4 -24 -15 -35 -12 -12 -17 -21 -13 -21 12 0 42 34
42 48 0 6 -4 14 -10 17 -5 3 -7 0 -4 -9z"/>
<path d="M2434 1145 c-30 -23 -97 -114 -110 -149 -3 -9 -1 -16 5 -16 6 0 11 5
11 10 0 19 70 121 103 151 39 35 33 38 -9 4z"/>
<path d="M2537 1151 c3 -12 -3 -24 -18 -35 -13 -9 -18 -16 -11 -16 20 0 52 38
46 55 -9 22 -23 19 -17 -4z"/>
<path d="M2253 1128 c-37 -40 -93 -123 -93 -137 0 -6 5 -11 12 -11 6 0 9 3 5
6 -6 7 61 112 96 152 32 35 15 26 -20 -10z"/>
<path d="M2121 1115 c-1 -25 17 -45 39 -44 10 0 9 3 -5 8 -11 4 -23 19 -26 32
-6 21 -7 21 -8 4z"/>
<path d="M2281 1113 c-1 -12 8 -27 18 -33 26 -13 41 -13 18 1 -10 6 -22 20
-27 32 l-9 22 0 -22z"/>
<path d="M2240 1038 c-34 -46 -37 -58 -14 -58 8 0 12 5 9 10 -3 6 2 22 13 38
45 65 39 75 -8 10z"/>
<path d="M2287 1022 c-21 -23 -22 -42 -2 -42 9 0 12 6 9 15 -4 8 -1 22 6 30
18 21 6 19 -13 -3z"/>
<path d="M150 505 c0 -64 -4 -115 -9 -115 -14 0 -23 34 -15 55 5 13 2 16 -12
13 -51 -9 -10 -88 46 -88 57 0 70 27 70 145 l0 105 -40 0 -40 0 0 -115z"/>
<path d="M290 508 c-18 -62 -35 -119 -37 -125 -3 -8 3 -13 15 -13 13 0 22 9
26 25 5 21 12 25 41 25 29 0 36 -4 41 -25 5 -21 12 -25 45 -25 45 0 45 -14 -1
150 l-27 95 -35 3 -34 3 -34 -113z m64 -40 c6 -25 4 -28 -19 -28 -29 0 -29 0
-13 52 12 42 16 39 32 -24z"/>
<path d="M480 495 l0 -125 84 0 c66 0 89 4 106 18 31 25 30 71 -2 95 l-25 19
23 23 c30 30 30 40 -1 70 -22 22 -32 25 -105 25 l-80 0 0 -125z m118 93 c25
-25 8 -78 -25 -78 -9 0 -13 15 -13 45 0 46 13 58 38 33z m12 -123 c13 -34 -3
-75 -30 -75 -17 0 -20 6 -20 50 0 44 3 50 20 50 13 0 24 -10 30 -25z"/>
<path d="M720 496 l0 -126 40 0 40 0 0 61 c0 52 2 60 18 57 12 -2 18 -14 20
-38 5 -75 9 -80 53 -80 38 0 41 2 35 23 -3 12 -6 32 -6 45 0 12 -8 29 -19 38
-18 15 -17 17 5 40 29 28 30 44 5 75 -17 21 -29 24 -105 28 l-86 3 0 -126z
m118 92 c25 -25 8 -78 -25 -78 -9 0 -13 15 -13 45 0 46 13 58 38 33z"/>
<path d="M995 608 c-28 -16 -35 -28 -35 -65 0 -34 25 -60 79 -83 34 -14 46
-37 30 -56 -24 -30 -79 -10 -79 28 0 11 -7 18 -20 18 -25 0 -26 -21 -1 -51 16
-20 29 -24 74 -24 67 0 97 22 97 70 0 38 -18 57 -83 85 -39 17 -48 26 -45 43
6 43 78 29 78 -14 0 -20 24 -26 35 -9 28 45 -73 90 -130 58z"/>
<path d="M1351 607 c-44 -22 -66 -63 -65 -123 0 -46 5 -59 27 -82 23 -23 36
-27 82 -27 41 0 59 5 74 20 26 27 31 58 9 63 -12 2 -18 -3 -18 -16 0 -22 -30
-52 -53 -52 -9 0 -21 10 -28 21 -14 28 -14 141 1 169 17 32 53 23 65 -18 11
-39 30 -37 30 4 0 46 -69 70 -124 41z"/>
<path d="M2360 495 l0 -125 35 0 35 0 0 125 0 125 -35 0 -35 0 0 -125z"/>
<path d="M2612 607 c-10 -11 -9 -17 2 -26 21 -18 51 -9 51 14 0 24 -36 32 -53
12z"/>
<path d="M3260 495 l0 -125 90 0 c53 0 90 4 90 10 0 6 -22 10 -50 10 l-50 0 0
115 0 115 -40 0 -40 0 0 -125z"/>
<path d="M3690 582 c0 -37 -1 -38 -33 -34 -22 2 -39 -2 -50 -12 -20 -20 -31
-77 -23 -110 11 -44 30 -54 106 -54 l70 -1 0 125 0 124 -35 0 c-34 0 -35 -1
-35 -38z m-5 -122 c0 -34 -5 -55 -12 -57 -10 -4 -13 12 -13 57 0 45 3 61 13
58 7 -3 12 -24 12 -58z"/>
<path d="M2503 594 c-18 -8 -33 -20 -33 -28 0 -8 -6 -17 -12 -20 -10 -5 -10
-7 0 -12 8 -4 12 -28 12 -69 0 -72 14 -95 60 -95 29 0 53 21 32 28 -8 2 -12
28 -12 68 0 50 3 64 15 64 8 0 15 5 15 10 0 6 -7 10 -15 10 -10 0 -15 10 -15
30 0 34 -2 34 -47 14z"/>
<path d="M3493 594 c-18 -8 -33 -20 -33 -28 0 -8 -6 -17 -12 -20 -10 -5 -10
-7 0 -12 8 -4 12 -28 12 -69 0 -72 14 -95 60 -95 29 0 53 21 32 28 -8 2 -12
28 -12 68 0 50 3 64 15 64 8 0 15 5 15 10 0 6 -7 10 -15 10 -10 0 -15 10 -15
30 0 34 -2 34 -47 14z"/>
<path d="M3042 588 c-6 -6 -12 -18 -12 -25 0 -8 -12 -13 -30 -13 -19 0 -40 -9
-55 -25 -30 -29 -31 -39 -6 -64 18 -18 18 -19 0 -35 -23 -19 -25 -44 -4 -52
14 -6 13 -8 -2 -20 -14 -10 -15 -15 -6 -25 17 -17 105 -23 146 -10 79 27 48
91 -44 91 -27 0 -49 5 -49 10 0 6 14 10 30 10 52 0 90 26 90 60 0 19 -7 34
-20 42 -26 17 -26 28 1 21 17 -5 20 -2 17 18 -3 27 -36 37 -56 17z m-16 -114
c-4 -14 -11 -22 -16 -19 -11 7 -13 58 -3 69 12 11 25 -24 19 -50z m24 -134 c0
-5 -18 -10 -40 -10 -22 0 -40 5 -40 10 0 6 18 10 40 10 22 0 40 -4 40 -10z"/>
<path d="M1554 539 c-60 -31 -55 -134 7 -160 39 -16 100 -5 122 22 22 28 22
91 -1 119 -21 25 -94 36 -128 19z m64 -83 c-2 -31 -7 -57 -13 -59 -11 -2 -20
97 -10 121 12 32 26 -6 23 -62z"/>
<path d="M1730 460 l0 -90 35 0 35 0 0 49 c0 57 15 105 30 96 5 -3 10 -37 10
-76 l0 -69 35 0 35 0 0 78 c0 47 -5 83 -12 90 -15 15 -53 16 -79 2 -13 -7 -19
-7 -19 0 0 5 -16 10 -35 10 l-35 0 0 -90z"/>
<path d="M1972 534 c-37 -25 -26 -64 26 -92 23 -13 42 -30 42 -38 0 -21 -38
-17 -52 6 -15 23 -48 27 -48 6 0 -49 135 -62 160 -15 17 31 3 55 -45 78 -25
12 -45 28 -45 36 0 20 39 20 46 0 7 -16 44 -21 44 -6 0 17 -44 41 -75 41 -17
0 -41 -7 -53 -16z"/>
<path d="M2140 471 c0 -51 4 -82 13 -89 6 -5 47 -10 90 -10 l77 -1 0 90 0 89
-35 0 -35 0 0 -56 c0 -58 -14 -99 -31 -89 -5 4 -9 37 -9 76 l0 69 -35 0 -35 0
0 -79z"/>
<path d="M2600 460 l0 -90 35 0 35 0 0 90 0 90 -35 0 -35 0 0 -90z"/>
<path d="M2710 460 l0 -90 35 0 35 0 0 49 c0 57 15 105 30 96 5 -3 10 -37 10
-76 l0 -69 35 0 35 0 0 78 c0 47 -5 83 -12 90 -15 15 -53 16 -79 2 -13 -7 -19
-7 -19 0 0 5 -16 10 -35 10 l-35 0 0 -90z"/>
</g>
</svg>
